# xmcd
#
# Track frame offsets: 
#        150
#        25445
#        41942
#        70104
#        95799
#        114670
#        132760
#        161453
#        181459
#        198700
#        223063
#        255811
#        275239
#        314233
#
# Disc length: 4458 seconds
#
# Revision: 0
# Processed by: cddbd v1.5.2PL0 Copyright (c) Steve Scherf et al.
# Submitted via: ExactAudioCopy v1.3
#
DISCID=df11680e
DTITLE=Dr. Wu' And Friends - A Night Of Classic Rock And Blues (Live A
DTITLE=t The 81 Club)
DYEAR=2019
DGENRE=Blues Rock
TTITLE0=All Right Now (Live)
TTITLE1=I Don't Need No Woman Like You (Live)
TTITLE2=Crossroads (Live)
TTITLE3=Badge (Live)
TTITLE4=When Your Lips Start Moving (Live)
TTITLE5=Voodoo Doll (Live)
TTITLE6=Oh Well (Live)
TTITLE7=I Still Got Your Tattoo (Live)
TTITLE8=Come Back Baby (Live)
TTITLE9=Nothin' Like Texas Blues (Live)
TTITLE10=All Along the Watchtower (Live)
TTITLE11=You Can't Keep a Good Man Down (Live)
TTITLE12=Whipping Post (Live)
TTITLE13=Manic Depression (Live)
EXTD=
EXTT0=
EXTT1=
EXTT2=
EXTT3=
EXTT4=
EXTT5=
EXTT6=
EXTT7=
EXTT8=
EXTT9=
EXTT10=
EXTT11=
EXTT12=
EXTT13=
PLAYORDER=
